HIERARCHY
ROOT reference
{
  OFFSET 0 0 0
  CHANNELS 6 Xposition Yposition Zposition Zrotation Xrotation Yrotation
  JOINT Hips
  {
    OFFSET 340.57 87.5694 214.797
    CHANNELS 3 Zrotation Xrotation Yrotation
    JOINT RightUpLeg
    {
      OFFSET -9.35418 -1.55218 -0.019184
      CHANNELS 3 Zrotation Xrotation Yrotation
      JOINT RightLeg
      {
        OFFSET -0.0482219 -41.8948 0.0725956
        CHANNELS 3 Zrotation Xrotation Yrotation
        JOINT RightFoot
        {
          OFFSET -1.00159 -42.3965 -1.97064
          CHANNELS 3 Zrotation Xrotation Yrotation
          End Site
          {
            OFFSET 0 -7.69 17.5
          }
        }
      }
    }
    JOINT LeftUpLeg
    {
      OFFSET 9.33628 -1.64535 -0.0795185
      CHANNELS 3 Zrotation Xrotation Yrotation
      JOINT LeftLeg
      {
        OFFSET 0.124871 -41.8725 -0.08325
        CHANNELS 3 Zrotation Xrotation Yrotation
        JOINT LeftFoot
        {
          OFFSET 0.728222 -40.8097 2.1196
          CHANNELS 3 Zrotation Xrotation Yrotation
          End Site
          {
            OFFSET 0 -7.69 17.5
          }
        }
      }
    }
    JOINT Spine
    {
      OFFSET -0.0135102 14.2943 0.0647361
      CHANNELS 3 Zrotation Xrotation Yrotation
      JOINT Spine1
      {
        OFFSET 0.0181502 9.72385 0.0148045
        CHANNELS 3 Zrotation Xrotation Yrotation
        JOINT Spine2
        {
          OFFSET 0.0557859 10.1166 -0.00979693
          CHANNELS 3 Zrotation Xrotation Yrotation
          JOINT Spine3
          {
            OFFSET 0.0359868 9.71757 0.00306838
            CHANNELS 3 Zrotation Xrotation Yrotation
            JOINT Neck
            {
              OFFSET 0.139197 10.3803 0.0501204
              CHANNELS 3 Zrotation Xrotation Yrotation
              JOINT Head
              {
                OFFSET 0.148012 9.47645 -0.000545472
                CHANNELS 3 Zrotation Xrotation Yrotation
                End Site
                {
                  OFFSET 0 15.95 0
                }
              }
            }
            JOINT RightShoulder
            {
              OFFSET -3.16276 6.92807 0.0312834
              CHANNELS 3 Zrotation Xrotation Yrotation
              JOINT RightArm
              {
                OFFSET -12.7681 0.0492996 0.0890957
                CHANNELS 3 Zrotation Xrotation Yrotation
                JOINT RightForeArm
                {
                  OFFSET -26.4761 -0.090776 0.147076
                  CHANNELS 3 Zrotation Xrotation Yrotation
                  JOINT RightHand
                  {
                    OFFSET -25.9655 0.0607057 -0.248467
                    CHANNELS 3 Zrotation Xrotation Yrotation
                    JOINT RightHandThumb1
                    {
                      OFFSET -2.48905 0.190105 3.12053
                      CHANNELS 3 Zrotation Xrotation Yrotation
                      JOINT RightHandThumb2
                      {
                        OFFSET -3.68274 0 0
                        CHANNELS 3 Zrotation Xrotation Yrotation
                        JOINT RightHandThumb3
                        {
                          OFFSET -2.55832 0 0
                          CHANNELS 3 Zrotation Xrotation Yrotation
                          End Site
                          {
                            OFFSET -2.194 0 0
                          }
                        }
                      }
                    }
                    JOINT RightInHandIndex
                    {
                      OFFSET -3.22368 0.508421 1.97842
                      CHANNELS 3 Zrotation Xrotation Yrotation
                      JOINT RightHandIndex1
                      {
                        OFFSET -5.21684 -0.091368 0.999158
                        CHANNELS 3 Zrotation Xrotation Yrotation
                        JOINT RightHandIndex2
                        {
                          OFFSET -3.61937 0 0
                          CHANNELS 3 Zrotation Xrotation Yrotation
                          JOINT RightHandIndex3
                          {
                            OFFSET -2.0521 0 0
                            CHANNELS 3 Zrotation Xrotation Yrotation
                            End Site
                            {
                              OFFSET -1.805 0 0
                            }
                          }
                        }
                      }
                    }
                    JOINT RightInHandMiddle
                    {
                      OFFSET -3.38211 0.517263 0.756737
                      CHANNELS 3 Zrotation Xrotation Yrotation
                      JOINT RightHandMiddle1
                      {
                        OFFSET -5.17411 -0.084 0.313895
                        CHANNELS 3 Zrotation Xrotation Yrotation
                        JOINT RightHandMiddle2
                        {
                          OFFSET -3.94947 0 0
                          CHANNELS 3 Zrotation Xrotation Yrotation
                          JOINT RightHandMiddle3
                          {
                            OFFSET -2.47579 0 0
                            CHANNELS 3 Zrotation Xrotation Yrotation
                            End Site
                            {
                              OFFSET -1.975 0 0
                            }
                          }
                        }
                      }
                    }
                    JOINT RightInHandRing
                    {
                      OFFSET -3.36516 0.537895 -0.128947
                      CHANNELS 3 Zrotation Xrotation Yrotation
                      JOINT RightHandRing1
                      {
                        OFFSET -4.63474 -0.022105 -0.478947
                        CHANNELS 3 Zrotation Xrotation Yrotation
                        JOINT RightHandRing2
                        {
                          OFFSET -3.44238 0 0
                          CHANNELS 3 Zrotation Xrotation Yrotation
                          JOINT RightHandRing3
                          {
                            OFFSET -2.3881 0 0
                            CHANNELS 3 Zrotation Xrotation Yrotation
                            End Site
                            {
                              OFFSET -1.857 0 0
                            }
                          }
                        }
                      }
                    }
                    JOINT RightInHandPinky
                    {
                      OFFSET -3.16105 0.469368 -1.20179
                      CHANNELS 3 Zrotation Xrotation Yrotation
                      JOINT RightHandPinky1
                      {
                        OFFSET -4.14105 -0.022105 -1.09053
                        CHANNELS 3 Zrotation Xrotation Yrotation
                        JOINT RightHandPinky2
                        {
                          OFFSET -2.75653 0 0
                          CHANNELS 3 Zrotation Xrotation Yrotation
                          JOINT RightHandPinky3
                          {
                            OFFSET -1.74189 0 0
                            CHANNELS 3 Zrotation Xrotation Yrotation
                            End Site
                            {
                              OFFSET -1.645 0 0
                            }
                          }
                        }
                      }
                    }
                  }
                }
              }
            }
            JOINT LeftShoulder
            {
              OFFSET 3.20588 6.97332 0.0254387
              CHANNELS 3 Zrotation Xrotation Yrotation
              JOINT LeftArm
              {
                OFFSET 12.8648 0.0341024 0.0247643
                CHANNELS 3 Zrotation Xrotation Yrotation
                JOINT LeftForeArm
                {
                  OFFSET 26.5059 -0.0470976 -0.0807017
                  CHANNELS 3 Zrotation Xrotation Yrotation
                  JOINT LeftHand
                  {
                    OFFSET 26.0013 -0.0100885 -0.0649647
                    CHANNELS 3 Zrotation Xrotation Yrotation
                    JOINT LeftHandThumb1
                    {
                      OFFSET 2.48905 0.190105 3.12053
                      CHANNELS 3 Zrotation Xrotation Yrotation
                      JOINT LeftHandThumb2
                      {
                        OFFSET 3.68274 0 0
                        CHANNELS 3 Zrotation Xrotation Yrotation
                        JOINT LeftHandThumb3
                        {
                          OFFSET 2.55832 0 0
                          CHANNELS 3 Zrotation Xrotation Yrotation
                          End Site
                          {
                            OFFSET 2.194 0 0
                          }
                        }
                      }
                    }
                    JOINT LeftInHandIndex
                    {
                      OFFSET 3.22368 0.508421 1.97842
                      CHANNELS 3 Zrotation Xrotation Yrotation
                      JOINT LeftHandIndex1
                      {
                        OFFSET 5.21684 -0.091368 0.999158
                        CHANNELS 3 Zrotation Xrotation Yrotation
                        JOINT LeftHandIndex2
                        {
                          OFFSET 3.61937 0 0
                          CHANNELS 3 Zrotation Xrotation Yrotation
                          JOINT LeftHandIndex3
                          {
                            OFFSET 2.0521 0 0
                            CHANNELS 3 Zrotation Xrotation Yrotation
                            End Site
                            {
                              OFFSET 1.805 0 0
                            }
                          }
                        }
                      }
                    }
                    JOINT LeftInHandMiddle
                    {
                      OFFSET 3.38211 0.517263 0.756737
                      CHANNELS 3 Zrotation Xrotation Yrotation
                      JOINT LeftHandMiddle1
                      {
                        OFFSET 5.17411 -0.084 0.313895
                        CHANNELS 3 Zrotation Xrotation Yrotation
                        JOINT LeftHandMiddle2
                        {
                          OFFSET 3.94947 0 0
                          CHANNELS 3 Zrotation Xrotation Yrotation
                          JOINT LeftHandMiddle3
                          {
                            OFFSET 2.47579 0 0
                            CHANNELS 3 Zrotation Xrotation Yrotation
                            End Site
                            {
                              OFFSET 1.975 0 0
                            }
                          }
                        }
                      }
                    }
                    JOINT LeftInHandRing
                    {
                      OFFSET 3.36516 0.537895 -0.128947
                      CHANNELS 3 Zrotation Xrotation Yrotation
                      JOINT LeftHandRing1
                      {
                        OFFSET 4.63474 -0.022105 -0.478947
                        CHANNELS 3 Zrotation Xrotation Yrotation
                        JOINT LeftHandRing2
                        {
                          OFFSET 3.44238 0 0
                          CHANNELS 3 Zrotation Xrotation Yrotation
                          JOINT LeftHandRing3
                          {
                            OFFSET 2.3881 0 0
                            CHANNELS 3 Zrotation Xrotation Yrotation
                            End Site
                            {
                              OFFSET 1.857 0 0
                            }
                          }
                        }
                      }
                    }
                    JOINT LeftInHandPinky
                    {
                      OFFSET 3.16105 0.469368 -1.20179
                      CHANNELS 3 Zrotation Xrotation Yrotation
                      JOINT LeftHandPinky1
                      {
                        OFFSET 4.14105 -0.022105 -1.09053
                        CHANNELS 3 Zrotation Xrotation Yrotation
                        JOINT LeftHandPinky2
                        {
                          OFFSET 2.75653 0 0
                          CHANNELS 3 Zrotation Xrotation Yrotation
                          JOINT LeftHandPinky3
                          {
                            OFFSET 1.74189 0 0
                            CHANNELS 3 Zrotation Xrotation Yrotation
                            End Site
                            {
                              OFFSET 1.645 0 0
                            }
                          }
                        }
                      }
                    }
                  }
                }
              }
            }
          }
        }
      }
    }
  }
}
MOTION
Frames: 2
Frame Time: 0.00833333
1.050000000000000000e+03 0.000000000000000000e+00 0.000000000000000000e+00 0.000000000000000000e+00 0.000000000000000000e+00 0.000000000000000000e+00 2.772621135862567954e+01 4.276784209604864273e+00 -1.004286021714159460e+02 1.389518540001944302e+00 -5.839458146522867565e+01 -3.522345633308070489e+00 -3.245503214764219990e+00 2.537000586306581695e+01 -4.439423319457792338e+00 1.228308118726343423e+01 4.943934910628885682e+00 4.019393592526437686e+01 3.647705607074527734e+01 -2.464500360430802317e+01 1.789071931569892371e+01 -5.542212485724627768e+00 3.123640359506636344e+01 1.265654611368740134e+00 -1.311908396384628261e+01 -1.637410768318743237e+01 4.037895165175722667e+00 -9.201398560478049049e+00 7.274352841833804817e+00 2.113729058379139047e+00 -2.168036360191381906e+00 1.794842235290997401e+00 3.022501899745186904e-01 -3.575838067201423609e+00 2.846909482442991912e+00 5.736475878245972382e-01 -6.642224642447214222e-01 -4.933284659552240603e-01 1.387615662166639563e+00 -1.318504367618235751e+00 -2.220278887667394230e+00 1.340633891648616149e+01 -1.108859699488048633e+01 -4.592647658375478059e+00 1.822252871585437006e+01 8.633268021332396458e+00 -2.172693045305313930e+00 6.583706771034995242e+00 8.097091086350214084e+01 -3.303345030765352419e+01 2.775120165973267916e+01 5.943919659877661843e+01 -2.925821452736164829e+01 8.146221982508404835e+01 1.212139406191218427e+01 -2.565046973288258769e+01 -2.153459627381108632e+00 2.818400000000000105e+01 1.072940000000000005e+01 1.915919999999999845e+01 1.624724353790839631e-14 -3.354198399029169242e-15 -1.000000000000000000e+01 -1.150321994601972894e-15 -7.168746893430326296e-15 -1.000000000000000000e+01 -3.967993049638680659e-15 -3.161220806460013877e-15 -1.459325537141130613e-16 1.998179999999999978e+01 8.718970000000000331e-01 2.396399999999999864e+00 2.400000000000000000e+01 -1.362018358621241228e-15 1.840817479379383979e-14 2.000000000000000000e+01 1.064108107716713614e-14 7.019324675650675139e-15 -3.967993049638680659e-15 -3.161220806460013877e-15 -1.459325537141130613e-16 2.000000000000000000e+01 2.597339793690589657e-15 6.169911054496282251e-15 2.400000000000000000e+01 -3.430790332534374733e-16 -1.404466141172554198e-15 2.000000000000000000e+01 -3.051061385903871371e-15 -1.220290826225806034e-14 -3.967993049638680659e-15 -3.161220806460013877e-15 -1.459325537141130613e-16 1.997479999999999833e+01 -1.025649999999999951e+00 -2.819380000000000219e+00 2.400000000000000000e+01 -3.091985508429217797e-15 3.745178669782312345e-16 2.000000000000000000e+01 -6.581250449363025702e-15 -1.602021233867418713e-14 -3.967993049638680659e-15 -3.161220806460013877e-15 -1.459325537141130613e-16 1.978150000000000119e+01 -3.009479999999999933e+00 -8.305149999999999366e+00 2.400000000000000000e+01 -8.094369855372878822e-16 -7.273636995094941920e-15 2.000000000000000000e+01 -1.760084099446949388e-15 -7.152520909583338211e-15 1.269280273840577067e+01 -1.444379900475211365e+01 -4.351828179263790730e+01 -1.346449859658810411e+01 3.882528120350362855e+01 -1.002716096117082003e+02 2.862134118819187023e+01 -2.320419362670360286e+01 1.605438318268866738e+01 -3.021101457060095186e+01 -1.650726625962571248e+01 5.372926390036884214e+00 -2.818400000000000105e+01 1.072940000000000005e+01 -1.915919999999999845e+01 -1.825276893753336011e-15 5.989915497683173243e-15 1.000000000000000000e+01 5.159923142838082378e-15 3.804801722719879105e-15 1.000000000000000000e+01 -1.463725949646667783e-15 -3.260558666604984861e-16 2.325219363916668423e-15 -1.998179999999999978e+01 8.718970000000000331e-01 -2.396399999999999864e+00 -2.400000000000000000e+01 9.575011997021178977e-16 7.913959289581226726e-15 -2.000000000000000000e+01 -3.434812213571856759e-15 1.012716812067207043e-14 -1.463725949646667783e-15 -3.260558666604984861e-16 2.325219363916668423e-15 -2.000000000000000000e+01 -3.667824643328924056e-15 -5.311323964122512710e-15 -2.400000000000000000e+01 6.698628829470342973e-15 2.488816678064206619e-15 -2.000000000000000000e+01 -8.936053539659049070e-16 9.839527985935964071e-15 -1.463725949646667783e-15 -3.260558666604984861e-16 2.325219363916668423e-15 -1.997479999999999833e+01 -1.025649999999999951e+00 2.819380000000000219e+00 -2.400000000000000000e+01 -7.346054180275825571e-15 4.480839745926026956e-15 -2.000000000000000000e+01 -2.058263980468447018e-15 1.501044779995155959e-14 -1.463725949646667783e-15 -3.260558666604984861e-16 2.325219363916668423e-15 -1.978150000000000119e+01 -3.009479999999999933e+00 8.305149999999999366e+00 -2.400000000000000000e+01 7.856403386321642381e-15 9.835205951940950315e-17 -2.000000000000000000e+01 -1.045766203080749660e-15 1.873315116893780362e-14
1.050000000000000000e+03 0.000000000000000000e+00 0.000000000000000000e+00 0.000000000000000000e+00 0.000000000000000000e+00 0.000000000000000000e+00 2.777444871092513523e+01 4.243061102891670267e+00 -1.007302356772140968e+02 1.507858275133159509e+00 -5.847728524380389103e+01 -3.418104745778752118e+00 -3.250403756478219996e+00 2.539375314885883839e+01 -4.437388773394800978e+00 1.232561387477778148e+01 4.822634551244654233e+00 4.022422384994602851e+01 3.658984464975833362e+01 -2.458584936156605494e+01 1.795399803692005491e+01 -5.594849921005692117e+00 3.124855972002933413e+01 1.327055237808528965e+00 -1.304931347355336513e+01 -1.637664013289263565e+01 4.210703066757730539e+00 -9.206561065750738848e+00 7.249105730104790091e+00 2.004637492875826155e+00 -2.169946310410276968e+00 1.786487716317253671e+00 2.752323407039720671e-01 -3.578851226227426796e+00 2.832689775475529803e+00 5.317269508228488206e-01 -6.674166975798183632e-01 -4.930570106972193556e-01 1.399880806429861790e+00 -1.330391473983086659e+00 -2.224852978058903918e+00 1.359457099201599561e+01 -1.113935901249291405e+01 -4.585057347184834597e+00 1.834700471402047839e+01 8.686536757918133844e+00 -2.122689107210151249e+00 6.494727300514602675e+00 8.096233600216785931e+01 -3.319436472495822699e+01 2.759994964493870739e+01 5.947943302341483474e+01 -2.920046413838042199e+01 8.160746137066149686e+01 1.207818390719585011e+01 -2.571899098236353609e+01 -2.084560957966896666e+00 2.818400000000000105e+01 1.072940000000000005e+01 1.915919999999999845e+01 1.623022804187807647e-14 -3.336824712463368055e-15 -1.000000000000000000e+01 -1.132907385207818484e-15 -7.175932908853200659e-15 -1.000000000000000000e+01 -3.963915703311020317e-15 -3.160240104722504602e-15 -1.476997368866001621e-16 1.998179999999999978e+01 8.718970000000000331e-01 2.396399999999999864e+00 2.400000000000000000e+01 -1.352009723824743293e-15 1.840614412026519985e-14 2.000000000000000000e+01 1.062643171813189048e-14 7.050465086137781636e-15 -3.963915703311020317e-15 -3.160240104722504602e-15 -1.476997368866001621e-16 2.000000000000000000e+01 2.607403605571403379e-15 6.194893622126776208e-15 2.400000000000000000e+01 -3.468305775528819336e-16 -1.405295658979689051e-15 2.000000000000000000e+01 -3.033683807214083408e-15 -1.217265926540284780e-14 -3.963915703311020317e-15 -3.160240104722504602e-15 -1.476997368866001621e-16 1.997479999999999833e+01 -1.025649999999999951e+00 -2.819380000000000219e+00 2.400000000000000000e+01 -3.089696354532878342e-15 3.763855654648057183e-16 2.000000000000000000e+01 -6.561289027000015566e-15 -1.597465373431358005e-14 -3.963915703311020317e-15 -3.160240104722504602e-15 -1.476997368866001621e-16 1.978150000000000119e+01 -3.009479999999999933e+00 -8.305149999999999366e+00 2.400000000000000000e+01 -8.059791775861557236e-16 -7.277297292727343634e-15 2.000000000000000000e+01 -1.763256311426532333e-15 -7.134155927819498419e-15 1.271473949448479246e+01 -1.447268647033554601e+01 -4.360051806397511598e+01 -1.335750068264360735e+01 3.889649346653129669e+01 -1.004358564658695343e+02 2.865971253715711953e+01 -2.309126473148290870e+01 1.615988542984248966e+01 -3.025901103438837225e+01 -1.650637764847541078e+01 5.352322916304131262e+00 -2.818400000000000105e+01 1.072940000000000005e+01 -1.915919999999999845e+01 -1.825857910614653629e-15 6.019526631705319305e-15 1.000000000000000000e+01 5.138810814881004500e-15 3.825286530679416824e-15 1.000000000000000000e+01 -1.472796984502197353e-15 -3.355786936056691316e-16 2.339869585027747366e-15 -1.998179999999999978e+01 8.718970000000000331e-01 -2.396399999999999864e+00 -2.400000000000000000e+01 9.512870127375590202e-16 7.905523021826698313e-15 -2.000000000000000000e+01 -3.425271271341722544e-15 1.014235039884055862e-14 -1.472796984502197353e-15 -3.355786936056691316e-16 2.339869585027747366e-15 -2.000000000000000000e+01 -3.657569134698938482e-15 -5.345638091689964268e-15 -2.400000000000000000e+01 6.687247055295345269e-15 2.498504406975774977e-15 -2.000000000000000000e+01 -8.942373959630066710e-16 9.851578046194833370e-15 -1.472796984502197353e-15 -3.355786936056691316e-16 2.339869585027747366e-15 -1.997479999999999833e+01 -1.025649999999999951e+00 2.819380000000000219e+00 -2.400000000000000000e+01 -7.347972184146280297e-15 4.466933962684766871e-15 -2.000000000000000000e+01 -2.058692715353421750e-15 1.501338592499493781e-14 -1.472796984502197353e-15 -3.355786936056691316e-16 2.339869585027747366e-15 -1.978150000000000119e+01 -3.009479999999999933e+00 8.305149999999999366e+00 -2.400000000000000000e+01 7.854637236949426636e-15 1.075114120298578211e-16 -2.000000000000000000e+01 -1.037862677804534603e-15 1.875057142021841374e-14
